<mxfile host="app.diagrams.net" modified="2023-10-22T01:38:41.059Z" agent="Mozilla/5.0 (Windows NT 10.0; Win64; x64) AppleWebKit/537.36 (KHTML, like Gecko) Chrome/118.0.0.0 Safari/537.36" etag="6Bx06DsfakUpkdpHBMxX" version="21.2.9" type="github">
  <diagram name="Page-1" id="e7e014a7-5840-1c2e-5031-d8a46d1fe8dd">
    <mxGraphModel dx="1100" dy="598" grid="1" gridSize="10" guides="1" tooltips="1" connect="1" arrows="1" fold="1" page="1" pageScale="1" pageWidth="1169" pageHeight="826" background="none" math="0" shadow="0">
      <root>
        <mxCell id="0" />
        <mxCell id="1" parent="0" />
        <mxCell id="2" value="Diagrama de Atividades - Login" style="swimlane;whiteSpace=wrap" parent="1" vertex="1">
          <mxGeometry x="50" y="150" width="394.5" height="570" as="geometry" />
        </mxCell>
        <mxCell id="5" value="" style="ellipse;shape=startState;fillColor=#000000;strokeColor=#ff0000;" parent="2" vertex="1">
          <mxGeometry x="160" y="40" width="30" height="30" as="geometry" />
        </mxCell>
        <mxCell id="6" value="" style="edgeStyle=elbowEdgeStyle;elbow=horizontal;verticalAlign=bottom;endArrow=open;endSize=8;strokeColor=#FF0000;endFill=1;rounded=0" parent="2" source="5" target="7" edge="1">
          <mxGeometry x="160" y="40" as="geometry">
            <mxPoint x="175" y="110" as="targetPoint" />
          </mxGeometry>
        </mxCell>
        <mxCell id="7" value="Usuário insere nome &#xa;de usuário e senha" style="" parent="2" vertex="1">
          <mxGeometry x="120" y="110" width="120" height="60" as="geometry" />
        </mxCell>
        <mxCell id="8" value="Sistema valida&#xa; as credenciais  " style="" parent="2" vertex="1">
          <mxGeometry x="120" y="220" width="110" height="50" as="geometry" />
        </mxCell>
        <mxCell id="9" value="" style="endArrow=open;strokeColor=#FF0000;endFill=1;rounded=0" parent="2" source="7" target="8" edge="1">
          <mxGeometry relative="1" as="geometry" />
        </mxCell>
        <mxCell id="10" value="Se as credenciais são&#xa; inválidas, exibe mensagem&#xa; de erro e retorna à etapa 1." style="" parent="2" vertex="1">
          <mxGeometry x="220" y="392" width="145.5" height="78" as="geometry" />
        </mxCell>
        <mxCell id="11" value="" style="endArrow=open;strokeColor=#FF0000;endFill=1;rounded=0" parent="2" source="xjSCA3znmnXuhdVDdIps-42" target="10" edge="1">
          <mxGeometry relative="1" as="geometry" />
        </mxCell>
        <mxCell id="xjSCA3znmnXuhdVDdIps-41" value="Ator: Usuário" style="text;html=1;strokeColor=none;fillColor=none;align=center;verticalAlign=middle;whiteSpace=wrap;rounded=0;" vertex="1" parent="2">
          <mxGeometry x="70" y="40" width="90" height="30" as="geometry" />
        </mxCell>
        <mxCell id="xjSCA3znmnXuhdVDdIps-42" value="Validou" style="rhombus;fillColor=#ffffc0;strokeColor=#ff0000;" vertex="1" parent="2">
          <mxGeometry x="135" y="312" width="80" height="40" as="geometry" />
        </mxCell>
        <mxCell id="xjSCA3znmnXuhdVDdIps-43" value="" style="endArrow=open;strokeColor=#FF0000;endFill=1;rounded=0" edge="1" parent="2" source="8" target="xjSCA3znmnXuhdVDdIps-42">
          <mxGeometry relative="1" as="geometry">
            <mxPoint x="337.5" y="398" as="sourcePoint" />
            <mxPoint x="326.5" y="560" as="targetPoint" />
          </mxGeometry>
        </mxCell>
        <mxCell id="20" value="" style="endArrow=open;strokeColor=#FF0000;endFill=1;rounded=0;entryX=1;entryY=0.5;entryDx=0;entryDy=0;" parent="2" source="10" target="7" edge="1">
          <mxGeometry relative="1" as="geometry">
            <mxPoint x="285.5" y="142" as="targetPoint" />
            <Array as="points">
              <mxPoint x="315.5" y="282" />
            </Array>
          </mxGeometry>
        </mxCell>
        <mxCell id="xjSCA3znmnXuhdVDdIps-44" value="Não" style="text;html=1;strokeColor=none;fillColor=none;align=center;verticalAlign=middle;whiteSpace=wrap;rounded=0;" vertex="1" parent="2">
          <mxGeometry x="205.5" y="342" width="60" height="30" as="geometry" />
        </mxCell>
        <mxCell id="xjSCA3znmnXuhdVDdIps-45" value="Se credenciais são válidas, &#xa;usuário é autenticado e &#xa;redirecionado para o menu &#xa;principal." style="" vertex="1" parent="2">
          <mxGeometry x="14.5" y="382" width="165.5" height="98" as="geometry" />
        </mxCell>
        <mxCell id="xjSCA3znmnXuhdVDdIps-47" value="" style="endArrow=open;strokeColor=#FF0000;endFill=1;rounded=0;entryX=0.5;entryY=0;entryDx=0;entryDy=0;exitX=0;exitY=1;exitDx=0;exitDy=0;" edge="1" parent="2" source="xjSCA3znmnXuhdVDdIps-42" target="xjSCA3znmnXuhdVDdIps-45">
          <mxGeometry relative="1" as="geometry">
            <mxPoint x="185" y="280" as="sourcePoint" />
            <mxPoint x="185" y="322" as="targetPoint" />
          </mxGeometry>
        </mxCell>
        <mxCell id="xjSCA3znmnXuhdVDdIps-48" value="Sim" style="text;html=1;strokeColor=none;fillColor=none;align=center;verticalAlign=middle;whiteSpace=wrap;rounded=0;" vertex="1" parent="2">
          <mxGeometry x="70" y="342" width="60" height="30" as="geometry" />
        </mxCell>
        <mxCell id="xjSCA3znmnXuhdVDdIps-55" value="" style="ellipse;shape=endState;fillColor=#000000;strokeColor=#ff0000" vertex="1" parent="2">
          <mxGeometry x="182.25" y="530" width="30" height="30" as="geometry" />
        </mxCell>
        <mxCell id="xjSCA3znmnXuhdVDdIps-56" value="" style="endArrow=open;strokeColor=#FF0000;endFill=1;rounded=0;exitX=0.5;exitY=1;exitDx=0;exitDy=0;" edge="1" parent="2" source="xjSCA3znmnXuhdVDdIps-45" target="xjSCA3znmnXuhdVDdIps-55">
          <mxGeometry relative="1" as="geometry">
            <mxPoint x="200" y="355" as="sourcePoint" />
            <mxPoint x="256" y="402" as="targetPoint" />
            <Array as="points">
              <mxPoint x="120" y="530" />
            </Array>
          </mxGeometry>
        </mxCell>
        <mxCell id="3" value="Diagrama de Atividades - Excluir Pedido" style="swimlane;whiteSpace=wrap" parent="1" vertex="1">
          <mxGeometry x="80" y="770" width="280" height="350" as="geometry" />
        </mxCell>
        <mxCell id="13" value="" style="ellipse;shape=startState;fillColor=#000000;strokeColor=#ff0000;" parent="3" vertex="1">
          <mxGeometry x="155" y="50" width="30" height="30" as="geometry" />
        </mxCell>
        <mxCell id="15" value="Usuário seleciona&#xa; o pedido a ser&#xa;excluido" style="" parent="3" vertex="1">
          <mxGeometry x="75" y="110" width="110" height="50" as="geometry" />
        </mxCell>
        <mxCell id="16" value="Sistema confirma a&#xa; exclusão do pedido." style="" parent="3" vertex="1">
          <mxGeometry x="85" y="210" width="110" height="50" as="geometry" />
        </mxCell>
        <mxCell id="xjSCA3znmnXuhdVDdIps-59" value="Ator: Usuário Comum" style="text;html=1;strokeColor=none;fillColor=none;align=center;verticalAlign=middle;whiteSpace=wrap;rounded=0;" vertex="1" parent="3">
          <mxGeometry y="40" width="130" height="30" as="geometry" />
        </mxCell>
        <mxCell id="xjSCA3znmnXuhdVDdIps-60" value="" style="ellipse;shape=endState;fillColor=#000000;strokeColor=#ff0000" vertex="1" parent="3">
          <mxGeometry x="125" y="310" width="30" height="30" as="geometry" />
        </mxCell>
        <mxCell id="xjSCA3znmnXuhdVDdIps-61" value="" style="endArrow=open;strokeColor=#FF0000;endFill=1;rounded=0;exitX=0.137;exitY=0.556;exitDx=0;exitDy=0;entryX=0.409;entryY=-0.11;entryDx=0;entryDy=0;entryPerimeter=0;exitPerimeter=0;" edge="1" parent="3" source="13" target="15">
          <mxGeometry relative="1" as="geometry">
            <mxPoint x="77" y="-130" as="sourcePoint" />
            <mxPoint x="163" y="-68" as="targetPoint" />
            <Array as="points" />
          </mxGeometry>
        </mxCell>
        <mxCell id="xjSCA3znmnXuhdVDdIps-63" value="" style="endArrow=open;strokeColor=#FF0000;endFill=1;rounded=0;exitX=0.5;exitY=1;exitDx=0;exitDy=0;entryX=0.5;entryY=0;entryDx=0;entryDy=0;" edge="1" parent="3" source="15" target="16">
          <mxGeometry relative="1" as="geometry">
            <mxPoint x="179" y="87" as="sourcePoint" />
            <mxPoint x="140" y="125" as="targetPoint" />
            <Array as="points" />
          </mxGeometry>
        </mxCell>
        <mxCell id="xjSCA3znmnXuhdVDdIps-62" value="" style="endArrow=open;strokeColor=#FF0000;endFill=1;rounded=0;exitX=0.701;exitY=1.036;exitDx=0;exitDy=0;entryX=0.632;entryY=0.051;entryDx=0;entryDy=0;entryPerimeter=0;exitPerimeter=0;" edge="1" parent="3" source="16" target="xjSCA3znmnXuhdVDdIps-60">
          <mxGeometry relative="1" as="geometry">
            <mxPoint x="169" y="77" as="sourcePoint" />
            <mxPoint x="130" y="115" as="targetPoint" />
            <Array as="points" />
          </mxGeometry>
        </mxCell>
        <mxCell id="4" value="Diagrama de Atividades - Criar Pedido" style="swimlane;whiteSpace=wrap" parent="1" vertex="1">
          <mxGeometry x="510" y="150" width="280" height="460" as="geometry" />
        </mxCell>
        <mxCell id="33" value="Usuário seleciona&#xa; itens e fornece&#xa;detalhes" style="" parent="4" vertex="1">
          <mxGeometry x="75" y="100" width="110" height="50" as="geometry" />
        </mxCell>
        <mxCell id="38" value="" style="ellipse;shape=endState;fillColor=#000000;strokeColor=#ff0000" parent="4" vertex="1">
          <mxGeometry x="125" y="400" width="30" height="30" as="geometry" />
        </mxCell>
        <mxCell id="39" value="" style="endArrow=open;strokeColor=#FF0000;endFill=1;rounded=0;entryX=0.5;entryY=0;entryDx=0;entryDy=0;" parent="4" source="33" target="xjSCA3znmnXuhdVDdIps-52" edge="1">
          <mxGeometry relative="1" as="geometry">
            <mxPoint x="130" y="190" as="targetPoint" />
          </mxGeometry>
        </mxCell>
        <mxCell id="xjSCA3znmnXuhdVDdIps-49" value="Ator: Usuário Comum" style="text;html=1;strokeColor=none;fillColor=none;align=center;verticalAlign=middle;whiteSpace=wrap;rounded=0;" vertex="1" parent="4">
          <mxGeometry x="20" y="50" width="120" height="30" as="geometry" />
        </mxCell>
        <mxCell id="xjSCA3znmnXuhdVDdIps-50" value="" style="ellipse;shape=startState;fillColor=#000000;strokeColor=#ff0000;" vertex="1" parent="4">
          <mxGeometry x="140" y="50" width="30" height="30" as="geometry" />
        </mxCell>
        <mxCell id="xjSCA3znmnXuhdVDdIps-52" value="Sistema valida o&#xa; pedido." style="" vertex="1" parent="4">
          <mxGeometry x="75" y="200" width="110" height="50" as="geometry" />
        </mxCell>
        <mxCell id="xjSCA3znmnXuhdVDdIps-53" value="Pedido é registrado&#xa; no sistema." style="" vertex="1" parent="4">
          <mxGeometry x="75" y="310" width="110" height="50" as="geometry" />
        </mxCell>
        <mxCell id="xjSCA3znmnXuhdVDdIps-54" value="" style="endArrow=open;strokeColor=#FF0000;endFill=1;rounded=0;entryX=0.5;entryY=0;entryDx=0;entryDy=0;exitX=0.5;exitY=1;exitDx=0;exitDy=0;" edge="1" parent="4" source="xjSCA3znmnXuhdVDdIps-52" target="xjSCA3znmnXuhdVDdIps-53">
          <mxGeometry relative="1" as="geometry">
            <mxPoint x="140" y="160" as="sourcePoint" />
            <mxPoint x="140" y="210" as="targetPoint" />
          </mxGeometry>
        </mxCell>
        <mxCell id="xjSCA3znmnXuhdVDdIps-57" value="" style="endArrow=open;strokeColor=#FF0000;endFill=1;rounded=0;entryX=0.5;entryY=0;entryDx=0;entryDy=0;exitX=0.5;exitY=1;exitDx=0;exitDy=0;" edge="1" parent="4" source="xjSCA3znmnXuhdVDdIps-53" target="38">
          <mxGeometry relative="1" as="geometry">
            <mxPoint x="140" y="260" as="sourcePoint" />
            <mxPoint x="140" y="320" as="targetPoint" />
          </mxGeometry>
        </mxCell>
        <mxCell id="xjSCA3znmnXuhdVDdIps-75" value="" style="endArrow=open;strokeColor=#FF0000;endFill=1;rounded=0;entryX=0.5;entryY=0;entryDx=0;entryDy=0;exitX=0.5;exitY=1;exitDx=0;exitDy=0;" edge="1" parent="4" source="xjSCA3znmnXuhdVDdIps-50" target="33">
          <mxGeometry relative="1" as="geometry">
            <mxPoint x="140" y="160" as="sourcePoint" />
            <mxPoint x="140" y="210" as="targetPoint" />
          </mxGeometry>
        </mxCell>
        <mxCell id="25" value="" style="shape=line;strokeWidth=6;strokeColor=#ff0000;rotation=90" parent="1" vertex="1">
          <mxGeometry x="-10" y="750" width="50" height="15" as="geometry" />
        </mxCell>
        <mxCell id="xjSCA3znmnXuhdVDdIps-64" value="Diagrama de Atividades - Consultar Pedidos" style="swimlane;whiteSpace=wrap" vertex="1" parent="1">
          <mxGeometry x="500" y="630" width="280" height="360" as="geometry" />
        </mxCell>
        <mxCell id="xjSCA3znmnXuhdVDdIps-65" value="Usuário solicita&#xa; a lista&#xa; de seus pedidos." style="" vertex="1" parent="xjSCA3znmnXuhdVDdIps-64">
          <mxGeometry x="75" y="130" width="110" height="50" as="geometry" />
        </mxCell>
        <mxCell id="xjSCA3znmnXuhdVDdIps-66" value="" style="ellipse;shape=endState;fillColor=#000000;strokeColor=#ff0000" vertex="1" parent="xjSCA3znmnXuhdVDdIps-64">
          <mxGeometry x="125" y="320" width="30" height="30" as="geometry" />
        </mxCell>
        <mxCell id="xjSCA3znmnXuhdVDdIps-67" value="" style="endArrow=open;strokeColor=#FF0000;endFill=1;rounded=0;entryX=0.5;entryY=0;entryDx=0;entryDy=0;" edge="1" parent="xjSCA3znmnXuhdVDdIps-64" source="xjSCA3znmnXuhdVDdIps-65" target="xjSCA3znmnXuhdVDdIps-70">
          <mxGeometry relative="1" as="geometry">
            <mxPoint x="130" y="190" as="targetPoint" />
          </mxGeometry>
        </mxCell>
        <mxCell id="xjSCA3znmnXuhdVDdIps-68" value="Ator: Usuário Comum" style="text;html=1;strokeColor=none;fillColor=none;align=center;verticalAlign=middle;whiteSpace=wrap;rounded=0;" vertex="1" parent="xjSCA3znmnXuhdVDdIps-64">
          <mxGeometry x="20" y="50" width="120" height="30" as="geometry" />
        </mxCell>
        <mxCell id="xjSCA3znmnXuhdVDdIps-69" value="" style="ellipse;shape=startState;fillColor=#000000;strokeColor=#ff0000;" vertex="1" parent="xjSCA3znmnXuhdVDdIps-64">
          <mxGeometry x="140" y="50" width="30" height="30" as="geometry" />
        </mxCell>
        <mxCell id="xjSCA3znmnXuhdVDdIps-70" value="Sistema exibe a&#xa; lista de pedidos." style="" vertex="1" parent="xjSCA3znmnXuhdVDdIps-64">
          <mxGeometry x="75" y="230" width="110" height="50" as="geometry" />
        </mxCell>
        <mxCell id="xjSCA3znmnXuhdVDdIps-72" value="" style="endArrow=open;strokeColor=#FF0000;endFill=1;rounded=0;entryX=0.5;entryY=0;entryDx=0;entryDy=0;exitX=0.5;exitY=1;exitDx=0;exitDy=0;" edge="1" parent="xjSCA3znmnXuhdVDdIps-64" source="xjSCA3znmnXuhdVDdIps-70" target="xjSCA3znmnXuhdVDdIps-66">
          <mxGeometry relative="1" as="geometry">
            <mxPoint x="140" y="160" as="sourcePoint" />
            <mxPoint x="130" y="310" as="targetPoint" />
          </mxGeometry>
        </mxCell>
        <mxCell id="xjSCA3znmnXuhdVDdIps-76" value="" style="endArrow=open;strokeColor=#FF0000;endFill=1;rounded=0;entryX=0.5;entryY=0;entryDx=0;entryDy=0;exitX=0.5;exitY=1;exitDx=0;exitDy=0;" edge="1" parent="xjSCA3znmnXuhdVDdIps-64" source="xjSCA3znmnXuhdVDdIps-69" target="xjSCA3znmnXuhdVDdIps-65">
          <mxGeometry relative="1" as="geometry">
            <mxPoint x="140" y="240" as="targetPoint" />
            <mxPoint x="140" y="190" as="sourcePoint" />
          </mxGeometry>
        </mxCell>
        <mxCell id="xjSCA3znmnXuhdVDdIps-78" value="Diagrama de Atividades - Consultar Catálogo" style="swimlane;whiteSpace=wrap" vertex="1" parent="1">
          <mxGeometry x="830" y="160" width="280" height="360" as="geometry" />
        </mxCell>
        <mxCell id="xjSCA3znmnXuhdVDdIps-79" value="Usuário solicita o&#xa; catálogo de produtos." style="" vertex="1" parent="xjSCA3znmnXuhdVDdIps-78">
          <mxGeometry x="75" y="130" width="125" height="60" as="geometry" />
        </mxCell>
        <mxCell id="xjSCA3znmnXuhdVDdIps-80" value="" style="ellipse;shape=endState;fillColor=#000000;strokeColor=#ff0000" vertex="1" parent="xjSCA3znmnXuhdVDdIps-78">
          <mxGeometry x="125" y="320" width="30" height="30" as="geometry" />
        </mxCell>
        <mxCell id="xjSCA3znmnXuhdVDdIps-81" value="" style="endArrow=open;strokeColor=#FF0000;endFill=1;rounded=0;entryX=0.5;entryY=0;entryDx=0;entryDy=0;" edge="1" parent="xjSCA3znmnXuhdVDdIps-78" source="xjSCA3znmnXuhdVDdIps-79" target="xjSCA3znmnXuhdVDdIps-84">
          <mxGeometry relative="1" as="geometry">
            <mxPoint x="130" y="190" as="targetPoint" />
          </mxGeometry>
        </mxCell>
        <mxCell id="xjSCA3znmnXuhdVDdIps-82" value="Ator: Usuário Comum" style="text;html=1;strokeColor=none;fillColor=none;align=center;verticalAlign=middle;whiteSpace=wrap;rounded=0;" vertex="1" parent="xjSCA3znmnXuhdVDdIps-78">
          <mxGeometry x="20" y="50" width="120" height="30" as="geometry" />
        </mxCell>
        <mxCell id="xjSCA3znmnXuhdVDdIps-83" value="" style="ellipse;shape=startState;fillColor=#000000;strokeColor=#ff0000;" vertex="1" parent="xjSCA3znmnXuhdVDdIps-78">
          <mxGeometry x="140" y="50" width="30" height="30" as="geometry" />
        </mxCell>
        <mxCell id="xjSCA3znmnXuhdVDdIps-84" value="Sistema exibe o &#xa;catálogo de produtos." style="" vertex="1" parent="xjSCA3znmnXuhdVDdIps-78">
          <mxGeometry x="75" y="230" width="125" height="50" as="geometry" />
        </mxCell>
        <mxCell id="xjSCA3znmnXuhdVDdIps-85" value="" style="endArrow=open;strokeColor=#FF0000;endFill=1;rounded=0;entryX=0.5;entryY=0;entryDx=0;entryDy=0;exitX=0.5;exitY=1;exitDx=0;exitDy=0;" edge="1" parent="xjSCA3znmnXuhdVDdIps-78" source="xjSCA3znmnXuhdVDdIps-84" target="xjSCA3znmnXuhdVDdIps-80">
          <mxGeometry relative="1" as="geometry">
            <mxPoint x="140" y="160" as="sourcePoint" />
            <mxPoint x="130" y="310" as="targetPoint" />
          </mxGeometry>
        </mxCell>
        <mxCell id="xjSCA3znmnXuhdVDdIps-86" value="" style="endArrow=open;strokeColor=#FF0000;endFill=1;rounded=0;entryX=0.5;entryY=0;entryDx=0;entryDy=0;exitX=0.5;exitY=1;exitDx=0;exitDy=0;" edge="1" parent="xjSCA3znmnXuhdVDdIps-78" source="xjSCA3znmnXuhdVDdIps-83" target="xjSCA3znmnXuhdVDdIps-79">
          <mxGeometry relative="1" as="geometry">
            <mxPoint x="140" y="240" as="targetPoint" />
            <mxPoint x="140" y="190" as="sourcePoint" />
          </mxGeometry>
        </mxCell>
        <mxCell id="xjSCA3znmnXuhdVDdIps-87" value="Diagrama de Atividades - Administrar Pedidos" style="swimlane;whiteSpace=wrap" vertex="1" parent="1">
          <mxGeometry x="820" y="550" width="280" height="490" as="geometry" />
        </mxCell>
        <mxCell id="xjSCA3znmnXuhdVDdIps-88" value="Administrador solicita &#xa;a lista de todos &#xa;os pedidos" style="" vertex="1" parent="xjSCA3znmnXuhdVDdIps-87">
          <mxGeometry x="75" y="100" width="125" height="50" as="geometry" />
        </mxCell>
        <mxCell id="xjSCA3znmnXuhdVDdIps-89" value="" style="ellipse;shape=endState;fillColor=#000000;strokeColor=#ff0000;direction=south;" vertex="1" parent="xjSCA3znmnXuhdVDdIps-87">
          <mxGeometry x="20" y="430" width="30" height="30" as="geometry" />
        </mxCell>
        <mxCell id="xjSCA3znmnXuhdVDdIps-90" value="" style="endArrow=open;strokeColor=#FF0000;endFill=1;rounded=0;entryX=0.5;entryY=0;entryDx=0;entryDy=0;" edge="1" parent="xjSCA3znmnXuhdVDdIps-87" source="xjSCA3znmnXuhdVDdIps-88" target="xjSCA3znmnXuhdVDdIps-93">
          <mxGeometry relative="1" as="geometry">
            <mxPoint x="130" y="190" as="targetPoint" />
          </mxGeometry>
        </mxCell>
        <mxCell id="xjSCA3znmnXuhdVDdIps-91" value="Ator: Administrador" style="text;html=1;strokeColor=none;fillColor=none;align=center;verticalAlign=middle;whiteSpace=wrap;rounded=0;" vertex="1" parent="xjSCA3znmnXuhdVDdIps-87">
          <mxGeometry x="20" y="50" width="120" height="30" as="geometry" />
        </mxCell>
        <mxCell id="xjSCA3znmnXuhdVDdIps-92" value="" style="ellipse;shape=startState;fillColor=#000000;strokeColor=#ff0000;" vertex="1" parent="xjSCA3znmnXuhdVDdIps-87">
          <mxGeometry x="140" y="50" width="30" height="30" as="geometry" />
        </mxCell>
        <mxCell id="xjSCA3znmnXuhdVDdIps-93" value="Sistema exibe a lista&#xa; de todos os pedidos" style="" vertex="1" parent="xjSCA3znmnXuhdVDdIps-87">
          <mxGeometry x="75" y="200" width="125" height="50" as="geometry" />
        </mxCell>
        <mxCell id="xjSCA3znmnXuhdVDdIps-94" value="Administrador seleciona&#xa; um pedido para exclusão" style="" vertex="1" parent="xjSCA3znmnXuhdVDdIps-87">
          <mxGeometry x="75" y="310" width="145" height="50" as="geometry" />
        </mxCell>
        <mxCell id="xjSCA3znmnXuhdVDdIps-95" value="" style="endArrow=open;strokeColor=#FF0000;endFill=1;rounded=0;entryX=0.5;entryY=0;entryDx=0;entryDy=0;exitX=0.5;exitY=1;exitDx=0;exitDy=0;" edge="1" parent="xjSCA3znmnXuhdVDdIps-87" source="xjSCA3znmnXuhdVDdIps-93" target="xjSCA3znmnXuhdVDdIps-94">
          <mxGeometry relative="1" as="geometry">
            <mxPoint x="140" y="160" as="sourcePoint" />
            <mxPoint x="140" y="210" as="targetPoint" />
          </mxGeometry>
        </mxCell>
        <mxCell id="xjSCA3znmnXuhdVDdIps-96" value="" style="endArrow=open;strokeColor=#FF0000;endFill=1;rounded=0;entryX=0;entryY=0.5;entryDx=0;entryDy=0;exitX=0;exitY=0.5;exitDx=0;exitDy=0;" edge="1" parent="xjSCA3znmnXuhdVDdIps-87" source="xjSCA3znmnXuhdVDdIps-98" target="xjSCA3znmnXuhdVDdIps-89">
          <mxGeometry relative="1" as="geometry">
            <mxPoint x="40" y="390" as="sourcePoint" />
            <mxPoint x="140" y="320" as="targetPoint" />
            <Array as="points">
              <mxPoint x="50" y="390" />
            </Array>
          </mxGeometry>
        </mxCell>
        <mxCell id="xjSCA3znmnXuhdVDdIps-97" value="" style="endArrow=open;strokeColor=#FF0000;endFill=1;rounded=0;entryX=0.5;entryY=0;entryDx=0;entryDy=0;exitX=0.5;exitY=1;exitDx=0;exitDy=0;" edge="1" parent="xjSCA3znmnXuhdVDdIps-87" source="xjSCA3znmnXuhdVDdIps-92" target="xjSCA3znmnXuhdVDdIps-88">
          <mxGeometry relative="1" as="geometry">
            <mxPoint x="140" y="160" as="sourcePoint" />
            <mxPoint x="140" y="210" as="targetPoint" />
          </mxGeometry>
        </mxCell>
        <mxCell id="xjSCA3znmnXuhdVDdIps-98" value="Sistema confirma a&#xa; exclusão do pedido." style="" vertex="1" parent="xjSCA3znmnXuhdVDdIps-87">
          <mxGeometry x="87.5" y="380" width="135" height="50" as="geometry" />
        </mxCell>
        <mxCell id="xjSCA3znmnXuhdVDdIps-99" value="" style="endArrow=open;strokeColor=#FF0000;endFill=1;rounded=0;entryX=1;entryY=0.5;entryDx=0;entryDy=0;exitX=1;exitY=0.5;exitDx=0;exitDy=0;" edge="1" parent="xjSCA3znmnXuhdVDdIps-87" source="xjSCA3znmnXuhdVDdIps-94" target="xjSCA3znmnXuhdVDdIps-98">
          <mxGeometry relative="1" as="geometry">
            <mxPoint x="148" y="260" as="sourcePoint" />
            <mxPoint x="153" y="320" as="targetPoint" />
            <Array as="points">
              <mxPoint x="260" y="350" />
            </Array>
          </mxGeometry>
        </mxCell>
        <mxCell id="xjSCA3znmnXuhdVDdIps-100" value="Diagrama de Atividades - Consultar Catálogo" style="swimlane;whiteSpace=wrap" vertex="1" parent="1">
          <mxGeometry x="390" y="1010" width="280" height="360" as="geometry" />
        </mxCell>
        <mxCell id="xjSCA3znmnXuhdVDdIps-101" value="Administrador seleciona&#xa; a opção para adicionar ou &#xa;remover itens do catálogo" style="" vertex="1" parent="xjSCA3znmnXuhdVDdIps-100">
          <mxGeometry x="75" y="130" width="155" height="60" as="geometry" />
        </mxCell>
        <mxCell id="xjSCA3znmnXuhdVDdIps-102" value="" style="ellipse;shape=endState;fillColor=#000000;strokeColor=#ff0000" vertex="1" parent="xjSCA3znmnXuhdVDdIps-100">
          <mxGeometry x="125" y="320" width="30" height="30" as="geometry" />
        </mxCell>
        <mxCell id="xjSCA3znmnXuhdVDdIps-103" value="" style="endArrow=open;strokeColor=#FF0000;endFill=1;rounded=0;entryX=0.5;entryY=0;entryDx=0;entryDy=0;" edge="1" parent="xjSCA3znmnXuhdVDdIps-100" source="xjSCA3znmnXuhdVDdIps-101" target="xjSCA3znmnXuhdVDdIps-106">
          <mxGeometry relative="1" as="geometry">
            <mxPoint x="130" y="190" as="targetPoint" />
          </mxGeometry>
        </mxCell>
        <mxCell id="xjSCA3znmnXuhdVDdIps-105" value="" style="ellipse;shape=startState;fillColor=#000000;strokeColor=#ff0000;" vertex="1" parent="xjSCA3znmnXuhdVDdIps-100">
          <mxGeometry x="140" y="50" width="30" height="30" as="geometry" />
        </mxCell>
        <mxCell id="xjSCA3znmnXuhdVDdIps-106" value="Sistema permite a adição &#xa;ou remoção de itens conforme&#xa; solicitado pelo administrador." style="" vertex="1" parent="xjSCA3znmnXuhdVDdIps-100">
          <mxGeometry x="75" y="220" width="165" height="70" as="geometry" />
        </mxCell>
        <mxCell id="xjSCA3znmnXuhdVDdIps-107" value="" style="endArrow=open;strokeColor=#FF0000;endFill=1;rounded=0;entryX=0.5;entryY=0;entryDx=0;entryDy=0;exitX=0.5;exitY=1;exitDx=0;exitDy=0;" edge="1" parent="xjSCA3znmnXuhdVDdIps-100" source="xjSCA3znmnXuhdVDdIps-106" target="xjSCA3znmnXuhdVDdIps-102">
          <mxGeometry relative="1" as="geometry">
            <mxPoint x="140" y="160" as="sourcePoint" />
            <mxPoint x="130" y="310" as="targetPoint" />
          </mxGeometry>
        </mxCell>
        <mxCell id="xjSCA3znmnXuhdVDdIps-108" value="" style="endArrow=open;strokeColor=#FF0000;endFill=1;rounded=0;entryX=0.5;entryY=0;entryDx=0;entryDy=0;exitX=0.5;exitY=1;exitDx=0;exitDy=0;" edge="1" parent="xjSCA3znmnXuhdVDdIps-100" source="xjSCA3znmnXuhdVDdIps-105" target="xjSCA3znmnXuhdVDdIps-101">
          <mxGeometry relative="1" as="geometry">
            <mxPoint x="140" y="240" as="targetPoint" />
            <mxPoint x="140" y="190" as="sourcePoint" />
          </mxGeometry>
        </mxCell>
        <mxCell id="xjSCA3znmnXuhdVDdIps-109" value="Ator: Administrador" style="text;html=1;strokeColor=none;fillColor=none;align=center;verticalAlign=middle;whiteSpace=wrap;rounded=0;" vertex="1" parent="xjSCA3znmnXuhdVDdIps-100">
          <mxGeometry y="30" width="120" height="30" as="geometry" />
        </mxCell>
      </root>
    </mxGraphModel>
  </diagram>
</mxfile>
